<svg xmlns="http://www.w3.org/2000/svg" viewBox="0 0 237 177"><path fill="#79CEB8" d="M60.9 97c-5.5-4.2-13.5-7.6-24.1-10.1-11.5-2.6-19.2-5.7-23-9.2S8 69.9 8 65c0-5 2.3-9.5 6.9-13.3 4.6-3.8 11.3-5.8 20.2-5.8 9 0 16.1 2.2 21.3 6.5 5.2 4.4 7.9 9.7 7.9 15.9h4l.2-.5c.3-7.9-2.6-14.3-8.6-19.2-6-4.9-14.3-7.4-24.8-7.4-9.7 0-17.5 2.3-23.2 6.9-5.7 4.6-8.6 10.3-8.6 17.1 0 7.4 2.5 13.1 7.6 16.8 5.1 3.8 13.3 6.9 24.6 9.3 10.7 2.3 18.2 5.6 22.5 9.7s6.5 8.7 6.5 13.8c0 5.4-2.6 10.1-7.7 14.2-5.2 4.1-12.1 6.2-20.9 6.2-8.1 0-15.2-1.7-21.2-5s-9.2-8.8-9.7-16.3H1l-.2.5c-.4 7.1 2.5 13.1 8.8 18.1 6.3 5 15 7.4 26.1 7.4 10.1 0 18.2-2.3 24.3-6.9 6.1-4.6 9.1-10.7 9.1-18.1 0-7.7-2.7-13.7-8.2-17.9zM96.8.9V138h4.7V.9h-4.7z"/><path fill="#73ACB6" d="M140.2.9h-4.7v11.8h4.7V.9zM136 145.8c0 8.2-1.8 14.6-5.3 19.1-3.5 4.5-8.5 6.8-15 6.8-1.5 0-3-.2-4.6-.5-1.6-.4-3-.7-4.1-1.1l-1.1 4.6c1.8.6 3.5 1 5 1.3 1.5.3 3.1.4 4.8.4 7.9 0 14.1-2.7 18.5-8s6.6-12.8 6.6-22.6V42.9H136v102.9zM228.7 97c-5.5-4.2-13.5-7.6-24.1-10.1-11.5-2.6-19.2-5.7-23-9.2s-5.8-7.8-5.8-12.7c0-5 2.3-9.5 6.9-13.3 4.6-3.8 11.3-5.8 20.2-5.8 9 0 16.1 2.2 21.3 6.5 5.2 4.4 7.9 9.7 7.9 15.9h4l.2-.5c.3-7.9-2.6-14.3-8.6-19.2-6-4.9-14.3-7.4-24.8-7.4-9.7 0-17.5 2.3-23.2 6.9-5.7 4.6-8.6 10.3-8.6 17.1 0 7.4 2.5 13.1 7.6 16.8 5.1 3.8 13.3 6.9 24.6 9.3 10.7 2.3 18.2 5.6 22.5 9.7s6.5 8.7 6.5 13.8c0 5.4-2.6 10.1-7.7 14.2-5.2 4.1-12.1 6.2-20.9 6.2-8.1 0-15.2-1.7-21.2-5s-9.2-8.8-9.7-16.3h-3.9l-.2.5c-.4 7.1 2.5 13.1 8.8 18.1 6.3 5 15 7.4 26.1 7.4 10.1 0 18.2-2.3 24.3-6.9 6.1-4.6 9.1-10.7 9.1-18.1-.1-7.7-2.8-13.7-8.3-17.9z"/></svg>